<svg xmlns="http://www.w3.org/2000/svg" version="1.1" xmlns:xlink="http://www.w3.org/1999/xlink" xmlns:svgjs="http://svgjs.com/svgjs" width="512" height="512" x="0" y="0" viewBox="0 0 481.882 481.882" style="enable-background:new 0 0 512 512" xml:space="preserve"><g>
<path xmlns="http://www.w3.org/2000/svg" style="" d="M240.941,0v481.882c133.12,0,240.941-107.821,240.941-240.941S374.061,0,240.941,0z" fill="#d15241" data-original="#d15241"></path>
<path xmlns="http://www.w3.org/2000/svg" style="" d="M0,240.941c0,133.12,107.821,240.941,240.941,240.941V0C107.821,0,0,107.821,0,240.941z" fill="#e56353" data-original="#e56353"></path>
<polygon xmlns="http://www.w3.org/2000/svg" style="" points="90.353,246.965 201.788,136.132 201.788,187.332 391.529,187.332 391.529,306.598   201.788,306.598 201.788,358.4 " fill="#ce412d" data-original="#ce412d"></polygon>
<polygon xmlns="http://www.w3.org/2000/svg" style="" points="90.353,234.918 201.788,123.482 201.788,175.285 391.529,175.285 391.529,294.551   201.788,294.551 201.788,345.751 " fill="#ffffff" data-original="#ffffff"></polygon>
<g xmlns="http://www.w3.org/2000/svg">
</g>
<g xmlns="http://www.w3.org/2000/svg">
</g>
<g xmlns="http://www.w3.org/2000/svg">
</g>
<g xmlns="http://www.w3.org/2000/svg">
</g>
<g xmlns="http://www.w3.org/2000/svg">
</g>
<g xmlns="http://www.w3.org/2000/svg">
</g>
<g xmlns="http://www.w3.org/2000/svg">
</g>
<g xmlns="http://www.w3.org/2000/svg">
</g>
<g xmlns="http://www.w3.org/2000/svg">
</g>
<g xmlns="http://www.w3.org/2000/svg">
</g>
<g xmlns="http://www.w3.org/2000/svg">
</g>
<g xmlns="http://www.w3.org/2000/svg">
</g>
<g xmlns="http://www.w3.org/2000/svg">
</g>
<g xmlns="http://www.w3.org/2000/svg">
</g>
<g xmlns="http://www.w3.org/2000/svg">
</g>
</g></svg>