<?xml version="1.0"?>
<svg xmlns="http://www.w3.org/2000/svg" xmlns:xlink="http://www.w3.org/1999/xlink" xmlns:svgjs="http://svgjs.com/svgjs" version="1.1" width="512" height="512" x="0" y="0" viewBox="0 0 512 512" style="enable-background:new 0 0 512 512" xml:space="preserve" class=""><g><g xmlns="http://www.w3.org/2000/svg"><g><path d="m456.834 0h-401.668c-30.419 0-55.166 24.748-55.166 55.167v401.666c0 30.419 24.747 55.167 55.166 55.167h401.668c30.419 0 55.166-24.748 55.166-55.167v-401.666c0-30.419-24.747-55.167-55.166-55.167z" fill="#e67010" data-original="#8ee16a" style="" class=""/><path d="m456.834 512c30.418 0 55.166-24.748 55.166-55.167v-401.666c0-30.419-24.748-55.167-55.166-55.167h-200.834v512z" fill="#ca5a00" data-original="#6ebd6b" style="" class=""/></g><g><path d="m405.074 90.816c-7.475-7.473-17.414-11.59-27.986-11.59-10.574 0-20.516 4.118-27.994 11.596-15.422 15.434-15.42 40.542.01 55.967 7.473 7.477 17.41 11.593 27.981 11.593h.002c10.574 0 20.512-4.115 27.98-11.588 7.484-7.479 11.602-17.416 11.602-27.988-.003-10.572-4.12-20.511-11.595-27.99z" fill="#daebeb" data-original="#daebeb" style=""/><path d="m290.117 295.873 87.947-.004c9.697 0 17.588-7.892 17.588-17.592v-17.59c0-9.699-7.893-17.59-17.592-17.59h-20.176c-3.979 0-7.795-1.58-10.607-4.394s-4.393-6.629-4.393-10.607l.002-37.769-37.32-37.32-140.721.006c-9.703 0-17.596 7.891-17.596 17.59l-.004 17.585c-.002 4.683 1.834 9.096 5.164 12.429 3.332 3.332 7.744 5.168 12.424 5.168l51.744.001c6.068 0 11.537 3.654 13.859 9.26 2.322 5.605 1.039 12.057-3.252 16.347l-75.901 75.907c-2.814 2.812-6.629 4.394-10.607 4.394l-59.884.004c-9.7 0-17.591 7.89-17.591 17.588v17.59c0 9.699 7.891 17.59 17.591 17.59l87.953-.002 26.711-26.707c2.93-2.928 6.768-4.393 10.605-4.393 3.84 0 7.678 1.464 10.607 4.393l6.854 6.854c2.812 2.813 4.395 6.629 4.393 10.607l-.002 59.88c-.002 4.683 1.832 9.095 5.164 12.426 3.332 3.333 7.744 5.168 12.424 5.168h17.607c9.695 0 17.584-7.89 17.584-17.588v-87.955l-6.736-6.735c-1.479-1.479-2.594-3.204-3.328-5.055-1.852-.735-3.578-1.85-5.057-3.329l-11.586-11.585c-2.814-2.813-4.395-6.629-4.395-10.607s1.58-7.793 4.393-10.606l10.523-10.522c4.289-4.289 10.742-5.572 16.348-3.252 5.606 2.322 9.26 7.792 9.258 13.859v16.556c.001-.002.003-.001.005 0z" fill="#faf3f4" data-original="#faf3f4" style=""/><g fill="#faf3f4"><path d="m162.246 253.907v-18.196c-11.242-.601-21.76-5.116-30-12.882v58.864h2.215z" fill="#faf3f4" data-original="#faf3f4" style=""/><path d="m162.246 123.088v-28.861h149.772c3.371-8.979 8.65-17.398 15.859-24.613 1.93-1.93 3.963-3.716 6.068-5.387h-186.699c-8.283 0-15 6.716-15 15v56.748c7.936-7.472 18.42-12.262 30-12.887z" fill="#faf3f4" data-original="#faf3f4" style=""/></g><g><path d="m426.277 168.01c-7.102 7.104-15.479 12.465-24.609 15.906v35.476c14.314 8.215 23.984 23.643 23.984 41.296v17.59c0 17.655-9.67 33.084-23.984 41.299v98.115h-91.049c-.625 11.58-5.412 22.065-12.883 30h118.932c8.283 0 15-6.716 15-15v-270.75c-1.672 2.105-3.459 4.138-5.391 6.068z" fill="#daebeb" data-original="#daebeb" style=""/><path d="m197.986 417.691h-35.74v-23.229l-30 .001v38.228c0 8.284 6.717 15 15 15h63.621c-7.765-8.238-12.281-18.757-12.881-30z" fill="#faf3f4" data-original="#faf3f4" style=""/></g><g fill="#daebeb"><path d="m378.06 243.098h-20.176c-3.979 0-7.795-1.58-10.607-4.394s-4.393-6.629-4.393-10.607l.002-37.769-37.32-37.32-49.566.002v124.203l8.506-8.505c4.289-4.289 10.742-5.572 16.348-3.252 5.606 2.322 9.26 7.792 9.258 13.859v16.556c.002 0 .004.001.006.002l87.947-.004c9.697 0 17.588-7.892 17.588-17.592v-17.59c-.001-9.699-7.893-17.589-17.593-17.589z" fill="#daebeb" data-original="#daebeb" style=""/><path d="m263.107 432.691c9.695 0 17.584-7.89 17.584-17.588v-87.955l-6.736-6.735c-1.479-1.479-2.594-3.204-3.328-5.055-1.852-.735-3.578-1.85-5.057-3.329l-9.57-9.568v130.23z" fill="#daebeb" data-original="#daebeb" style=""/><path d="m327.877 69.613c1.93-1.93 3.963-3.716 6.068-5.387h-77.945v30h56.018c3.371-8.978 8.65-17.398 15.859-24.613z" fill="#daebeb" data-original="#daebeb" style=""/></g></g></g></g></svg>
