<svg xmlns="http://www.w3.org/2000/svg" version="1.1" xmlns:xlink="http://www.w3.org/1999/xlink" xmlns:svgjs="http://svgjs.com/svgjs" width="512" height="512" x="0" y="0" viewBox="0 0 512 512" style="enable-background:new 0 0 512 512" xml:space="preserve" class=""><g><g xmlns="http://www.w3.org/2000/svg"><circle cx="256" cy="256" fill="#f5df4d" r="256" data-original="#ffd300" style="" class=""></circle><g><path d="m512 256c0-19.872-2.265-39.215-6.549-57.785l-99.553-99.553-68.126 29.001-48.248-48.248-204.333 243.748 72.926 72.926-18.087 36.497 76.362 76.361c12.909 2.005 26.136 3.053 39.608 3.053 141.385 0 256-114.615 256-256z" fill="#ff9e00" data-original="#ff9e00" style="" class=""></path></g><g><path d="m170.03 432.586h-30l40-137.28h30z" fill="#544f56" data-original="#544f56" style="" class=""></path><path d="m335.949 432.586h30l-40-137.28h-30z" fill="#403b41" data-original="#403b41" style="" class=""></path><path d="m106.102 98.662v185.762l74.036 17.737 75.862-17.737 8.869-80.82-8.869-104.942z" fill="#ade232" data-original="#ade232" style="" class=""></path><path d="m405.898 98.662h-149.898v185.762l74.949 17.737 74.949-17.737z" fill="#3db232" data-original="#8dc805" style="" class=""></path><path d="m85.191 284.669v38.494h170.809l8.869-21.644-8.869-16.85z" fill="#b1705b" data-original="#b1705b" style="" class=""></path><path d="m256 284.669h170.809v38.495h-170.809z" fill="#885140" data-original="#885140" style="" class=""></path><path d="m222.477 79.414v38.495h33.523l8.869-21.754-8.869-16.741z" fill="#b1705b" data-original="#b1705b" style="" class=""></path><path d="m256 79.414h33.523v38.495h-33.523z" fill="#885140" data-original="#885140" style="" class=""></path></g></g></g></svg>